<svg width="316" height="203" fill="none" xmlns="http://www.w3.org/2000/svg"><g filter="url(#a)"><rect x="30" y="15" width="256" height="143" rx="10" fill="#333"/></g><path d="m56.51 40.7.42 1.43H57l.32-1.47 2.14-5.86h1.36L58 42.08a43 43 0 0 1-.77 1.9c-.21.5-.43.92-.65 1.24-.23.3-.47.53-.72.67-.26.13-.57.19-.95.19-.35 0-.63-.03-.85-.08-.2-.06-.4-.15-.57-.27l.4-1.1c.21.11.4.19.59.22.18.03.35.05.5.05.3 0 .55-.15.75-.45.2-.31.38-.76.53-1.36L52.1 34.8h1.54l2.86 5.9Zm6.75 1.7h-.73V46h-1.28v-8h1.28v3.62l.69-.23L65.78 38h1.39l-2.48 3.22-.67.52.83.64L67.52 46h-1.58l-2.68-3.6Zm5.5-3.8c.4-.25.87-.43 1.4-.55.55-.12 1.12-.18 1.7-.18.56 0 1 .08 1.33.23.34.15.6.34.77.59.18.23.3.5.35.78.07.29.1.58.1.87 0 .64-.02 1.26-.05 1.87-.03.6-.05 1.18-.05 1.73 0 .4.02.76.05 1.12.03.35.1.67.18.97h-.95l-.33-1.12h-.08a2.72 2.72 0 0 1-.88.83 3.6 3.6 0 0 1-1.62.39c-.34 0-.66-.06-.96-.16-.29-.1-.54-.26-.75-.45-.22-.2-.39-.44-.51-.72a2.4 2.4 0 0 1-.18-.94 2.01 2.01 0 0 1 1.09-1.92c.35-.2.77-.33 1.25-.4.49-.09 1.03-.13 1.61-.13h.43c.15 0 .3 0 .45.03.03-.32.05-.6.05-.86 0-.6-.12-1-.35-1.24-.24-.23-.66-.35-1.28-.35a5.05 5.05 0 0 0-1.86.34c-.19.06-.36.14-.51.22l-.4-.96Zm2.27 6.4c.3 0 .57-.03.8-.1.24-.09.44-.2.61-.3.17-.14.31-.27.42-.42.11-.15.2-.3.25-.44v-1.32a6.5 6.5 0 0 0-.46-.02 6.27 6.27 0 0 0-2.26.26c-.23.1-.42.23-.57.41a1 1 0 0 0-.21.66c0 .37.13.68.4.93.26.23.6.35 1.02.35Zm8.4-2.54L77.08 46h-1.47l2.53-3.66.54-.48-.81-.61L75.79 38h1.36l2.2 3.46h.84V38h1.24v3.62l.76-.23L84.4 38h1.34l-2.17 3.25-.63.51.82.64 2.37 3.6h-1.52l-2.35-3.6h-.84V46H80.2v-3.76l-.76.22Zm12.93-1.2.05-.99h-.05l-.65 1.03-3.6 4.7h-.74v-8h1.28v4.88l-.05.94h.07l.62-.99L92.9 38h.75v8h-1.28v-4.74Zm8.85-2.14H98.7V46h-1.28v-6.88H94.9V38h6.3v1.12Zm6.86 6.24a3.6 3.6 0 0 1-1.21.6c-.48.16-1 .23-1.54.23a4 4 0 0 1-1.58-.29c-.45-.2-.82-.48-1.1-.84-.3-.38-.5-.82-.65-1.33a6.6 6.6 0 0 1-.2-1.73c0-1.37.3-2.4.9-3.12.61-.71 1.48-1.07 2.61-1.07.37 0 .73.04 1.1.13.35.07.68.22.97.44.29.23.52.55.7.96.18.4.27.95.27 1.62 0 .35-.03.74-.1 1.17h-5.13c0 .47.05.88.15 1.25.1.36.24.67.44.92s.47.44.79.58c.33.13.73.2 1.2.2a3.25 3.25 0 0 0 1.9-.65l.48.93Zm-2.75-6.43c-.63 0-1.14.16-1.52.5-.37.32-.6.89-.67 1.69h3.97c0-.81-.16-1.38-.47-1.7a1.7 1.7 0 0 0-1.31-.5Zm11.32 3.47h-.74V46h-1.28v-8h1.28v3.62l.7-.23 2.55-3.39h1.4l-2.49 3.22-.67.52.83.64L120.9 46h-1.58l-2.67-3.6Zm5-.4c0-1.35.3-2.39.9-3.1a3.21 3.21 0 0 1 2.6-1.1c.6 0 1.12.1 1.56.31.45.2.81.48 1.1.85.3.36.5.8.64 1.33.14.51.21 1.08.21 1.71 0 1.35-.3 2.4-.91 3.12-.6.71-1.46 1.07-2.6 1.07-.59 0-1.11-.1-1.56-.29-.44-.2-.8-.48-1.09-.84-.29-.38-.5-.82-.64-1.33-.14-.52-.2-1.1-.2-1.73Zm1.33 0c0 .4.04.8.11 1.17.09.37.22.7.39.97.17.28.4.5.67.68.28.17.61.25 1 .25 1.46.01 2.18-1.01 2.18-3.07 0-.42-.04-.81-.13-1.18-.07-.38-.2-.7-.36-.98a1.89 1.89 0 0 0-1.68-.91c-1.45-.01-2.18 1.01-2.18 3.07Zm11.91-2.88h-2.32l-.1 1.46a16.24 16.24 0 0 1-.4 3.04c-.1.47-.24.88-.41 1.24-.16.37-.37.66-.61.88-.23.22-.52.32-.85.32-.2 0-.38 0-.53-.03a1.45 1.45 0 0 1-.4-.11l.2-1.07c.12.04.26.06.41.06.22 0 .4-.09.58-.27.17-.18.32-.52.45-1.02.12-.52.23-1.22.32-2.12.08-.9.14-2.06.17-3.5h4.77v8h-1.28v-6.88Zm8.74 2.14.04-.99h-.04l-.66 1.03-3.6 4.7h-.74v-8h1.28v4.88l-.05.94h.07l.62-.99 3.6-4.83h.76v8h-1.28v-4.74Zm4.57-3.26v2.18c0 .28.02.55.05.78.03.22.1.42.19.6.1.15.23.28.41.38.19.08.43.12.72.12.48 0 .88-.05 1.19-.16.3-.1.54-.22.7-.35V38h1.28v8h-1.28v-3.36a3.94 3.94 0 0 1-2.14.54c-.4 0-.74-.04-1.04-.12-.3-.09-.55-.24-.75-.45-.2-.22-.36-.5-.47-.85-.1-.35-.14-.8-.14-1.33V38h1.28Zm12.85 7.36c-.32.26-.72.46-1.22.6-.47.16-.99.23-1.53.23a4 4 0 0 1-1.58-.29c-.45-.2-.82-.48-1.1-.84-.3-.38-.51-.82-.65-1.33a6.6 6.6 0 0 1-.2-1.73c0-1.37.3-2.4.9-3.12.61-.71 1.48-1.07 2.61-1.07.36 0 .73.04 1.1.13.35.07.68.22.97.44.28.23.52.55.7.96.18.4.27.95.27 1.62 0 .35-.03.74-.1 1.17h-5.13c0 .47.05.88.14 1.25a2.05 2.05 0 0 0 1.23 1.5c.34.13.74.2 1.2.2a3.26 3.26 0 0 0 1.91-.65l.48.93Zm-2.75-6.43c-.63 0-1.14.16-1.52.5-.38.32-.6.89-.67 1.69h3.97c0-.81-.16-1.38-.47-1.7-.3-.33-.75-.5-1.31-.5Zm10.32 6.54c-.32.24-.7.41-1.14.53a4.87 4.87 0 0 1-2.94-.1c-.43-.2-.78-.48-1.06-.84a3.87 3.87 0 0 1-.59-1.33 7.92 7.92 0 0 1-.17-1.73c0-1.35.3-2.39.9-3.1.59-.73 1.45-1.1 2.57-1.1a5.6 5.6 0 0 1 2.27.47l-.37 1.1a3.24 3.24 0 0 0-.81-.31c-.3-.09-.62-.13-.96-.13-1.52 0-2.28 1.02-2.28 3.07 0 .4.04.8.12 1.17.08.36.22.69.4.97.19.28.43.5.73.68.31.17.69.25 1.14.25a2.9 2.9 0 0 0 1.78-.58l.41.98Zm6.62-6.35h-2.51V46h-1.28v-6.88h-2.52V38h6.3v1.12Zm1.27-1.1 1.17-.08c.41-.04.92-.05 1.53-.05 1.06 0 1.81.16 2.27.5.46.31.7.8.7 1.47 0 .37-.12.74-.34 1.1-.22.35-.58.61-1.08.78v.07c.63.12 1.08.33 1.33.65.26.32.39.75.39 1.28 0 .84-.3 1.44-.9 1.81-.6.38-1.5.56-2.69.56a37.77 37.77 0 0 1-2.38-.13v-7.96Zm1.28 6.9a12.05 12.05 0 0 0 1.3.07c.7 0 1.24-.1 1.58-.3.35-.2.53-.55.53-1.04 0-.39-.15-.7-.45-.93-.29-.25-.8-.37-1.55-.37h-1.41v2.58Zm1.57-3.54a1.67 1.67 0 0 0 1.39-.76c.1-.15.14-.3.14-.48 0-.42-.13-.72-.38-.88-.26-.17-.7-.25-1.35-.25a16.25 16.25 0 0 0-1.37.05v2.32h1.57Zm4.68.62c0-1.35.3-2.39.9-3.1a3.21 3.21 0 0 1 2.6-1.1c.6 0 1.12.1 1.56.31.45.2.82.48 1.1.85.3.36.5.8.64 1.33.14.51.21 1.08.21 1.71 0 1.35-.3 2.4-.91 3.12-.6.71-1.46 1.07-2.6 1.07-.59 0-1.11-.1-1.56-.29-.44-.2-.8-.48-1.09-.84-.29-.38-.5-.82-.64-1.33-.14-.52-.2-1.1-.2-1.73Zm1.33 0c0 .4.04.8.11 1.17.09.37.22.7.39.97.17.28.4.5.67.68.28.17.61.25 1 .25 1.46.01 2.18-1.01 2.18-3.07 0-.42-.04-.81-.12-1.18-.08-.38-.2-.7-.37-.98a1.89 1.89 0 0 0-1.68-.91c-1.45-.01-2.18 1.01-2.18 3.07Zm19.04 6.03h-.87L203.3 46h-6.01l-.24 2.03h-.87v-3.15h.95c.08-.12.2-.33.33-.62.14-.31.28-.74.4-1.28.14-.56.26-1.24.36-2.05.1-.82.17-1.8.19-2.93h4.83v6.88h1.17v3.15Zm-2.45-3.15v-5.76h-2.4a29.67 29.67 0 0 1-.34 3.06c-.08.52-.2 1.01-.33 1.48-.14.47-.3.88-.48 1.22h3.55Zm9.87.48a3.6 3.6 0 0 1-1.21.6c-.48.16-1 .23-1.54.23a4 4 0 0 1-1.58-.29c-.45-.2-.82-.48-1.1-.84-.3-.38-.5-.82-.65-1.33a6.6 6.6 0 0 1-.2-1.73c0-1.37.3-2.4.9-3.12.61-.71 1.48-1.07 2.61-1.07.37 0 .73.04 1.1.13.35.07.68.22.97.44.29.23.52.55.7.96.18.4.27.95.27 1.62 0 .35-.03.74-.1 1.17h-5.13c0 .47.05.88.15 1.25.1.36.24.67.44.92s.47.44.79.58c.33.13.73.2 1.2.2a3.25 3.25 0 0 0 1.9-.65l.48.93Zm-2.75-6.43c-.63 0-1.14.16-1.52.5-.37.32-.6.89-.67 1.69h3.97c0-.81-.16-1.38-.47-1.7a1.7 1.7 0 0 0-1.31-.5Zm10.14.19h-2.51V46h-1.28v-6.88h-2.51V38h6.3v1.12Zm6.86 6.24a3.6 3.6 0 0 1-1.21.6c-.48.16-1 .23-1.54.23a4 4 0 0 1-1.58-.29c-.45-.2-.82-.48-1.1-.84-.3-.38-.5-.82-.65-1.33a6.6 6.6 0 0 1-.2-1.73c0-1.37.3-2.4.9-3.12.61-.71 1.48-1.07 2.61-1.07.37 0 .73.04 1.1.13.35.07.68.22.97.44.29.23.52.55.7.96.18.4.27.95.27 1.62 0 .35-.03.74-.1 1.17h-5.13c0 .47.05.88.15 1.25.1.36.24.67.44.92s.47.44.79.58c.33.13.73.2 1.2.2a3.25 3.25 0 0 0 1.9-.65l.48.93Zm-2.75-6.43c-.63 0-1.14.16-1.52.5-.37.32-.6.89-.67 1.69h3.97c0-.81-.16-1.38-.47-1.7a1.7 1.7 0 0 0-1.31-.5Zm10.03 2.33.05-.99h-.05l-.66 1.03-3.6 4.7h-.73v-8h1.28v4.88l-.05.94h.06l.63-.99 3.6-4.83h.75v8h-1.28v-4.74Zm-3.15-6.5c.1.5.29.84.54 1.03.27.2.57.29.91.29.34 0 .65-.1.91-.3.27-.2.45-.54.55-1l.96.3c-.1.63-.37 1.1-.83 1.43-.45.33-.99.5-1.62.5-.29 0-.58-.04-.86-.11a2.54 2.54 0 0 1-.75-.34 2.11 2.11 0 0 1-.9-1.4l1.09-.4Zm6.44 10.55c0-.25.09-.46.26-.62a.92.92 0 0 1 .66-.24 1 1 0 0 1 .8.35c.2.23.31.58.31 1.02 0 .39-.05.72-.16 1.01a2.43 2.43 0 0 1-.97 1.25c-.2.14-.4.24-.6.3l-.4-.62c.38-.15.66-.38.84-.7.2-.31.29-.63.29-.95a.86.86 0 0 1-.27.05.77.77 0 0 1-.55-.2c-.14-.16-.2-.37-.2-.65ZM55.24 63.4h-.73V67h-1.28v-8h1.28v3.62l.69-.23L57.76 59h1.4l-2.49 3.22-.67.52.83.64L59.5 67h-1.58l-2.67-3.6Zm5.01-.4c0-1.35.3-2.39.9-3.1a3.21 3.21 0 0 1 2.6-1.1c.6 0 1.12.1 1.56.31.45.2.81.48 1.1.85.3.36.5.8.64 1.33.14.51.21 1.08.21 1.71 0 1.35-.3 2.4-.91 3.12-.6.71-1.46 1.07-2.6 1.07-.6 0-1.11-.1-1.56-.29-.44-.2-.8-.48-1.09-.84-.29-.38-.5-.82-.64-1.33-.14-.52-.2-1.1-.2-1.73Zm1.33 0c0 .4.04.8.11 1.17.09.37.22.7.39.97.17.28.4.5.67.68.28.17.61.25 1 .25 1.46.01 2.18-1.01 2.18-3.07 0-.42-.04-.81-.13-1.18-.07-.38-.2-.7-.36-.98a1.89 1.89 0 0 0-1.68-.91c-1.45-.01-2.18 1.01-2.18 3.07Zm12.55-2.88h-2.5V67h-1.29v-6.88h-2.51V59h6.3v1.12Zm.58 2.88c0-1.35.3-2.39.9-3.1a3.21 3.21 0 0 1 2.6-1.1c.6 0 1.11.1 1.55.31.45.2.82.48 1.1.85.3.36.5.8.65 1.33.13.51.2 1.08.2 1.71 0 1.35-.3 2.4-.9 3.12-.6.71-1.47 1.07-2.6 1.07-.6 0-1.12-.1-1.57-.29-.44-.2-.8-.48-1.09-.84-.28-.38-.5-.82-.64-1.33-.13-.52-.2-1.1-.2-1.73Zm1.32 0c0 .4.04.8.12 1.17.08.37.2.7.38.97.17.28.4.5.67.68.28.17.62.25 1.01.25 1.45.01 2.18-1.01 2.18-3.07 0-.42-.05-.81-.13-1.18-.08-.38-.2-.7-.37-.98a1.89 1.89 0 0 0-1.68-.91c-1.45-.01-2.18 1.01-2.18 3.07Zm7.7-4h.88l.24.96h.07c.24-.37.56-.66.94-.85.4-.2.84-.3 1.34-.3 1.07 0 1.87.31 2.39.94.52.63.78 1.66.78 3.09 0 .67-.09 1.28-.27 1.82-.17.54-.42 1-.74 1.36-.32.38-.7.67-1.16.87a4.44 4.44 0 0 1-2.45.22 3.46 3.46 0 0 1-.74-.24v3.33h-1.28V59Zm3.23.93c-.54 0-.97.14-1.3.43-.3.28-.52.7-.65 1.28v3.97c.2.15.41.26.66.35.24.07.57.11.97.11a2.1 2.1 0 0 0 1.75-.81c.44-.56.65-1.37.65-2.44 0-.43-.03-.83-.1-1.18-.08-.36-.2-.67-.38-.91a1.63 1.63 0 0 0-.64-.6 2 2 0 0 0-.96-.2Zm6.7 5.95c.4.06.78.1 1.14.1.68 0 1.15-.13 1.41-.39.27-.26.4-.64.4-1.12 0-.42-.13-.78-.4-1.05-.25-.28-.7-.42-1.36-.42-.18 0-.38 0-.59.02-.21 0-.41.04-.6.1v2.76Zm0-3.82c.26-.05.51-.07.74-.08.24-.03.46-.04.68-.04.54 0 1 .07 1.36.2.37.11.67.28.9.5.22.2.37.46.46.76.1.29.14.6.14.93 0 .97-.27 1.67-.82 2.11-.53.44-1.4.66-2.6.66-.69 0-1.4-.04-2.13-.1v-8h1.28v3.06ZM99.2 59h1.28v8H99.2v-8Zm9.6 7.36c-.33.26-.73.46-1.22.6-.48.16-1 .23-1.54.23a4 4 0 0 1-1.59-.29c-.44-.2-.81-.48-1.1-.84-.29-.38-.5-.82-.64-1.33a6.6 6.6 0 0 1-.2-1.73c0-1.37.3-2.4.9-3.12.61-.71 1.48-1.07 2.61-1.07.37 0 .73.04 1.1.13.35.07.68.22.97.44.28.23.52.55.7.96.18.4.27.95.27 1.62 0 .35-.03.74-.1 1.17h-5.13c0 .47.05.88.14 1.25a2.05 2.05 0 0 0 1.23 1.5c.34.13.74.2 1.2.2a3.26 3.26 0 0 0 1.91-.65l.48.93Zm-2.76-6.43c-.63 0-1.14.16-1.52.5-.38.32-.6.89-.67 1.69h3.97c0-.81-.16-1.38-.47-1.7-.3-.33-.75-.5-1.31-.5Zm10.04.5c.35-.52.74-.88 1.17-1.08.42-.21.95-.32 1.6-.32.98 0 1.73.32 2.25.96.54.64.8 1.59.8 2.83 0 1.44-.3 2.53-.93 3.27-.6.73-1.46 1.1-2.56 1.1-1.17 0-2.05-.4-2.64-1.21-.58-.81-.88-2.09-.88-3.83 0-.92.05-1.7.13-2.35.1-.65.23-1.2.4-1.65.18-.45.4-.8.64-1.07.26-.27.54-.47.85-.62.32-.16.67-.28 1.04-.34s.77-.12 1.2-.16c.55-.05.99-.11 1.3-.18.31-.07.57-.2.76-.38l.15 1.15c-.1.1-.23.18-.36.24-.12.07-.28.12-.46.16a13.44 13.44 0 0 1-1.52.2c-.46.03-.86.08-1.21.17a1.9 1.9 0 0 0-.9.46c-.25.23-.44.55-.6.98-.13.42-.23.97-.28 1.66h.05Zm.14 2.59c0 .4.04.8.13 1.16.09.38.21.7.38 1a1.92 1.92 0 0 0 1.66.9c.74 0 1.29-.27 1.64-.8.36-.53.54-1.3.54-2.34 0-.4-.03-.78-.1-1.12a2.6 2.6 0 0 0-.36-.88 1.57 1.57 0 0 0-.6-.58c-.25-.14-.55-.2-.89-.2-.83-.02-1.44.23-1.82.73a3.4 3.4 0 0 0-.58 2.13Zm9.86 1.16.45 1.54h.08l.35-1.55 1.56-5.17h1.3l-2.38 7.18-.54 1.52c-.17.5-.36.93-.58 1.32a3.2 3.2 0 0 1-.72.9c-.26.24-.57.36-.92.36-.39 0-.7-.05-.95-.16l.23-1.1c.14.05.27.08.4.08.3 0 .58-.16.86-.48.28-.31.5-.85.69-1.62l-3.22-8h1.47l1.92 5.18Zm11.96 4.85h-.87l-.24-2.03h-6.01l-.24 2.03h-.87v-3.15h.95c.08-.12.2-.33.33-.62.14-.31.28-.74.4-1.28.14-.56.26-1.24.36-2.05.1-.82.17-1.8.19-2.93h4.83v6.88h1.17v3.15Zm-2.45-3.15v-5.76h-2.4a27.43 27.43 0 0 1-.34 3.06c-.08.52-.2 1.01-.33 1.48-.14.47-.3.88-.48 1.22h3.55Zm6.38-1.7.45 1.54h.08l.35-1.55 1.56-5.17h1.3l-2.38 7.18-.54 1.52c-.17.5-.36.93-.57 1.32-.22.38-.46.68-.72.9-.27.24-.58.36-.93.36-.39 0-.7-.05-.95-.16l.23-1.1c.14.05.27.08.4.08.3 0 .58-.16.86-.48.28-.31.5-.85.69-1.62l-3.22-8h1.47l1.92 5.18Zm10.21-4.06h-2.51V67h-1.28v-6.88h-2.51V59h6.3v1.12Zm10.5 6.35c-.33.24-.7.41-1.14.53a4.87 4.87 0 0 1-2.95-.1c-.42-.2-.78-.48-1.05-.84a3.89 3.89 0 0 1-.6-1.33 7.92 7.92 0 0 1-.17-1.73c0-1.35.3-2.39.9-3.1.6-.73 1.45-1.1 2.57-1.1a5.6 5.6 0 0 1 2.27.47l-.37 1.1a3.24 3.24 0 0 0-.81-.31c-.3-.09-.62-.13-.96-.13-1.52 0-2.27 1.02-2.27 3.07 0 .4.03.8.1 1.17.1.36.23.69.4.97.2.28.45.5.74.68.31.17.7.25 1.14.25a2.89 2.89 0 0 0 1.78-.58l.41.98Zm6.02-7.45 1.17-.08c.41-.04.93-.05 1.53-.05 1.06 0 1.82.16 2.28.5.45.31.69.8.69 1.47 0 .37-.12.74-.34 1.1-.22.35-.57.61-1.07.78v.07c.63.12 1.07.33 1.32.65.26.32.39.75.39 1.28 0 .84-.3 1.44-.9 1.81-.6.38-1.5.56-2.69.56a37.77 37.77 0 0 1-2.38-.13v-7.96Zm1.28 6.9a12.05 12.05 0 0 0 1.3.07c.71 0 1.24-.1 1.58-.3.35-.2.53-.55.53-1.04 0-.39-.15-.7-.45-.93-.29-.25-.8-.37-1.55-.37h-1.4v2.58Zm1.57-3.54a1.67 1.67 0 0 0 1.4-.76c.09-.15.14-.3.14-.48 0-.42-.13-.72-.39-.88-.25-.17-.7-.25-1.34-.25a16.25 16.25 0 0 0-1.38.05v2.32h1.57Zm5-2.79c.41-.24.88-.42 1.41-.54.55-.12 1.11-.18 1.7-.18.56 0 1 .08 1.33.23.34.15.6.34.77.59.18.23.3.5.35.78.06.29.1.58.1.87 0 .64-.02 1.26-.05 1.87-.03.6-.05 1.18-.05 1.73 0 .4.01.76.05 1.12.03.35.09.67.17.97h-.94l-.34-1.12h-.08a2.74 2.74 0 0 1-.88.83 3.59 3.59 0 0 1-1.61.39c-.34 0-.66-.06-.96-.16a2.3 2.3 0 0 1-.76-.45c-.2-.2-.38-.44-.5-.72a2.4 2.4 0 0 1-.18-.94c0-.47.1-.86.28-1.17.2-.32.46-.57.8-.75.36-.2.77-.33 1.25-.4.5-.09 1.03-.13 1.62-.13h.43c.15 0 .3 0 .45.03.03-.32.05-.6.05-.86 0-.6-.12-1-.36-1.24-.23-.23-.66-.35-1.28-.35a5.04 5.04 0 0 0-1.86.34c-.18.06-.35.14-.5.22l-.4-.96Zm2.28 6.42c.3 0 .56-.04.8-.11.23-.09.44-.2.6-.3.18-.14.32-.27.42-.42.12-.15.2-.3.26-.44v-1.32l-.47-.02a6.27 6.27 0 0 0-2.25.26c-.24.1-.43.23-.58.41a1 1 0 0 0-.2.66c0 .37.13.68.4.93.26.23.6.35 1.02.35Zm12.4-3.76.1-1.52h-.08l-.58 1.23-1.93 3.14h-.45l-2.02-3.14-.53-1.23h-.06l.13 1.5V67h-1.19v-8h1.27l2.24 3.58.46.93h.03l.48-.96 2.1-3.55h1.28v8h-1.25v-4.75Zm8.7.01.04-.99h-.04l-.66 1.03-3.6 4.7h-.73v-8h1.28v4.88l-.05.94h.06l.63-.99 3.6-4.83h.75v8h-1.28v-4.74Zm3.3 4.05c0-.25.08-.46.25-.62a.92.92 0 0 1 .65-.24 1 1 0 0 1 .8.35c.22.23.32.58.32 1.02 0 .39-.05.72-.16 1.01a2.48 2.48 0 0 1-.97 1.25c-.2.14-.4.24-.61.3l-.4-.62c.38-.15.67-.38.85-.7.19-.31.29-.63.29-.95a.86.86 0 0 1-.28.05.77.77 0 0 1-.54-.2c-.14-.16-.2-.37-.2-.65Zm7.05-7.3 1.17-.07c.41-.04.93-.05 1.53-.05 1.06 0 1.82.16 2.28.5.45.31.68.8.68 1.47 0 .37-.1.74-.33 1.1a1.9 1.9 0 0 1-1.08.78v.07c.63.12 1.08.33 1.33.65.26.32.39.75.39 1.28 0 .84-.3 1.44-.9 1.81-.6.38-1.5.56-2.69.56a37.77 37.77 0 0 1-2.38-.13v-7.96Zm1.28 6.92a12.15 12.15 0 0 0 1.3.06c.71 0 1.24-.1 1.58-.3.35-.2.53-.55.53-1.04 0-.39-.15-.7-.45-.93-.29-.25-.8-.37-1.55-.37h-1.41v2.58Zm1.57-3.55a1.67 1.67 0 0 0 1.39-.76c.1-.15.14-.3.14-.48 0-.42-.13-.72-.38-.88-.26-.17-.7-.25-1.34-.25a16.3 16.3 0 0 0-1.38.05v2.32h1.57Zm4.69.62c0-1.35.3-2.39.9-3.1a3.21 3.21 0 0 1 2.6-1.1c.6 0 1.11.1 1.55.31.45.2.82.48 1.1.85.3.36.5.8.65 1.33.13.51.2 1.08.2 1.71 0 1.35-.3 2.4-.9 3.12-.6.71-1.47 1.07-2.6 1.07-.6 0-1.12-.1-1.57-.29-.44-.2-.8-.48-1.09-.84-.28-.38-.5-.82-.64-1.33-.14-.52-.2-1.1-.2-1.73Zm1.32 0c0 .4.04.8.12 1.17.08.37.2.7.38.97.17.28.4.5.67.68.28.17.62.25 1 .25 1.46.01 2.19-1.01 2.19-3.07 0-.42-.05-.81-.13-1.18-.08-.38-.2-.7-.37-.98a1.89 1.89 0 0 0-1.68-.91c-1.45-.01-2.18 1.01-2.18 3.07Zm8.47.43V62.4h1.12a1.91 1.91 0 0 0 1.07-.35c.15-.12.27-.25.35-.4.1-.16.15-.33.15-.5 0-.41-.15-.7-.44-.88a2.6 2.6 0 0 0-1.3-.25c-.4 0-.8.06-1.14.19-.34.13-.61.25-.8.37l-.37-1a5.16 5.16 0 0 1 2.67-.69c1.77 0 2.66.66 2.66 1.98 0 .37-.13.74-.37 1.1-.24.35-.58.6-1.03.75v.07c.63.11 1.07.34 1.32.67s.38.77.38 1.31c0 .34-.07.66-.2.94-.15.3-.35.54-.63.76-.28.2-.63.38-1.06.5-.41.13-.9.18-1.45.18-.55 0-1-.04-1.36-.14-.36-.1-.68-.21-.96-.35l.37-1.06c.24.14.53.25.88.32.35.08.73.11 1.13.11.65 0 1.15-.1 1.49-.33.34-.23.51-.57.51-1.03 0-.38-.16-.68-.48-.9-.32-.22-.85-.33-1.58-.33h-.93Zm6.3-4.43h.87l.24.96h.07c.24-.37.56-.66.94-.85.4-.2.84-.3 1.35-.3 1.06 0 1.86.31 2.38.94.52.63.78 1.66.78 3.09 0 .67-.09 1.28-.27 1.82-.17.54-.41 1-.73 1.36-.32.38-.71.67-1.17.87a4.44 4.44 0 0 1-2.45.22 3.47 3.47 0 0 1-.74-.24v3.33h-1.28V59Zm3.23.93c-.55 0-.98.14-1.3.43-.3.28-.53.7-.66 1.28v3.97c.2.15.41.26.66.35.25.07.57.11.98.11a2.1 2.1 0 0 0 1.74-.81c.44-.56.66-1.37.66-2.44 0-.43-.04-.83-.12-1.18-.07-.36-.2-.67-.36-.91a1.63 1.63 0 0 0-.64-.6 2 2 0 0 0-.96-.2Zm5.3-.34c.4-.24.87-.42 1.4-.54.54-.12 1.1-.18 1.7-.18.55 0 1 .08 1.32.23.34.15.6.34.77.59.18.23.3.5.35.78.07.29.1.58.1.87 0 .64-.02 1.26-.05 1.87-.03.6-.05 1.18-.05 1.73 0 .4.02.76.05 1.12.03.35.1.67.18.97h-.95l-.33-1.12h-.08a2.74 2.74 0 0 1-.88.83 3.59 3.59 0 0 1-1.62.39c-.34 0-.66-.06-.96-.16a2.3 2.3 0 0 1-.75-.45c-.21-.2-.38-.44-.51-.72a2.4 2.4 0 0 1-.18-.94 2.02 2.02 0 0 1 1.09-1.92c.35-.2.77-.33 1.25-.4.49-.09 1.03-.13 1.61-.13h.44c.15 0 .3 0 .44.03.04-.32.05-.6.05-.86 0-.6-.12-1-.35-1.24-.23-.23-.66-.35-1.28-.35a5.04 5.04 0 0 0-1.86.34c-.19.06-.36.14-.5.22l-.4-.96Zm2.26 6.42c.3 0 .57-.04.8-.11.24-.09.44-.2.61-.3.17-.14.31-.27.42-.42.12-.15.2-.3.25-.44v-1.32l-.46-.02a6.27 6.27 0 0 0-2.26.26c-.23.1-.42.23-.57.41a1 1 0 0 0-.21.66c0 .37.13.68.4.93.27.23.6.35 1.02.35Zm11.25.46c-.32.24-.7.41-1.13.53a4.88 4.88 0 0 1-2.95-.1c-.42-.2-.78-.48-1.05-.84a3.87 3.87 0 0 1-.6-1.33 7.86 7.86 0 0 1-.17-1.73c0-1.35.3-2.39.9-3.1.6-.73 1.45-1.1 2.57-1.1a5.6 5.6 0 0 1 2.27.47l-.36 1.1a3.27 3.27 0 0 0-.82-.31c-.3-.09-.62-.13-.96-.13-1.52 0-2.27 1.02-2.27 3.07 0 .4.03.8.11 1.17.08.36.22.69.4.97.2.28.44.5.74.68.3.17.68.25 1.13.25a2.9 2.9 0 0 0 1.78-.58l.41.98Zm6.62-6.35h-2.51V67h-1.28v-6.88h-2.51V59h6.3v1.12ZM55.25 84.4h-.74V88h-1.28v-8h1.28v3.62l.69-.23L57.76 80h1.4l-2.49 3.22-.67.52.83.64L59.5 88h-1.58l-2.67-3.6Zm5-.4c0-1.35.3-2.39.9-3.1a3.21 3.21 0 0 1 2.6-1.1c.6 0 1.12.1 1.56.31.45.2.81.48 1.1.85.3.36.5.8.64 1.33.14.51.21 1.08.21 1.71 0 1.35-.3 2.4-.91 3.12-.6.71-1.46 1.07-2.6 1.07-.6 0-1.11-.1-1.56-.29-.44-.2-.8-.48-1.09-.84-.29-.38-.5-.82-.64-1.33-.14-.52-.2-1.1-.2-1.73Zm1.33 0c0 .4.04.8.11 1.17.09.37.22.7.39.97.17.28.4.5.67.68.28.17.61.25 1 .25 1.46.01 2.18-1.01 2.18-3.07 0-.42-.04-.81-.13-1.18-.07-.38-.2-.7-.36-.98a1.89 1.89 0 0 0-1.68-.91c-1.45-.01-2.18 1.01-2.18 3.07Zm12.55-2.88h-2.5V88h-1.29v-6.88h-2.51V80h6.3v1.12Zm.58 2.88c0-1.35.3-2.39.9-3.1a3.21 3.21 0 0 1 2.6-1.1c.6 0 1.11.1 1.55.31.45.2.82.48 1.1.85.3.36.5.8.65 1.33.13.51.2 1.08.2 1.71 0 1.35-.3 2.4-.9 3.12-.6.71-1.47 1.07-2.6 1.07-.6 0-1.12-.1-1.57-.29-.44-.2-.8-.48-1.09-.84-.28-.38-.5-.82-.64-1.33-.13-.52-.2-1.1-.2-1.73Zm1.32 0c0 .4.04.8.12 1.17.08.37.2.7.38.97.17.28.4.5.67.68.28.17.62.25 1.01.25 1.45.01 2.18-1.01 2.18-3.07 0-.42-.05-.81-.13-1.18-.08-.38-.2-.7-.37-.98a1.89 1.89 0 0 0-1.68-.91c-1.45-.01-2.18 1.01-2.18 3.07Zm7.7-4h.88l.24.96h.07c.24-.37.56-.66.94-.85.4-.2.84-.3 1.34-.3 1.07 0 1.87.31 2.39.94.52.63.78 1.66.78 3.09 0 .67-.09 1.28-.27 1.82-.17.54-.42 1-.74 1.36-.32.38-.7.67-1.16.87a4.44 4.44 0 0 1-2.45.22 3.46 3.46 0 0 1-.74-.24v3.33h-1.28V80Zm3.23.93c-.54 0-.97.14-1.3.43-.3.28-.52.7-.65 1.28v3.97c.2.15.41.26.66.35.24.07.57.11.97.11a2.1 2.1 0 0 0 1.75-.81c.44-.56.65-1.37.65-2.44 0-.43-.03-.83-.1-1.18-.08-.36-.2-.67-.38-.91a1.63 1.63 0 0 0-.64-.6 2 2 0 0 0-.96-.2Zm6.7 5.95c.4.06.78.1 1.14.1.68 0 1.15-.13 1.41-.39.27-.26.4-.64.4-1.12 0-.42-.13-.78-.4-1.05-.25-.28-.7-.42-1.36-.42-.18 0-.38 0-.59.02-.21 0-.41.04-.6.1v2.76Zm0-3.82c.26-.05.51-.07.74-.08.24-.03.46-.04.68-.04.54 0 1 .07 1.36.2.37.11.67.28.9.5.22.2.37.46.46.76.1.29.14.6.14.93 0 .97-.27 1.67-.82 2.11-.53.44-1.4.66-2.6.66-.69 0-1.4-.04-2.13-.1v-8h1.28v3.06ZM99.2 80h1.28v8H99.2v-8Zm5.85 3.9-2.7-3.9h1.58l1.52 2.2.44.92.47-.91L107.9 80h1.44l-2.7 3.84L109.5 88H108l-1.7-2.43-.48-.96-.5.96L103.6 88h-1.42l2.88-4.1Zm9.52.1c0-1.35.3-2.39.9-3.1a3.21 3.21 0 0 1 2.6-1.1c.6 0 1.11.1 1.55.31.45.2.82.48 1.1.85.3.36.5.8.64 1.33.14.51.21 1.08.21 1.71 0 1.35-.3 2.4-.9 3.12-.6.71-1.47 1.07-2.6 1.07-.6 0-1.12-.1-1.57-.29-.44-.2-.8-.48-1.09-.84-.28-.38-.5-.82-.64-1.33-.13-.52-.2-1.1-.2-1.73Zm1.32 0c0 .4.04.8.11 1.17.1.37.22.7.39.97.17.28.4.5.67.68.28.17.61.25 1 .25 1.46.01 2.19-1.01 2.19-3.07 0-.42-.05-.81-.13-1.18-.08-.38-.2-.7-.37-.98a1.89 1.89 0 0 0-1.68-.91c-1.45-.01-2.18 1.01-2.18 3.07Zm12.55-2.88h-2.5V88h-1.29v-6.88h-2.5V80h6.3v1.12Zm11.68 3.5c0 .5-.07.96-.22 1.4a3.17 3.17 0 0 1-3.18 2.18c-.54 0-1.02-.1-1.45-.26-.42-.17-.8-.43-1.1-.76a3.6 3.6 0 0 1-.72-1.24 5.47 5.47 0 0 1-.24-1.7c0-1.06.13-2.03.4-2.91.28-.9.66-1.68 1.14-2.34a6.03 6.03 0 0 1 1.7-1.6 5.37 5.37 0 0 1 2.14-.78l.27 1.02c-.6.1-1.14.31-1.63.61a5.34 5.34 0 0 0-2.2 2.58c-.23.54-.4 1.1-.48 1.68a2.82 2.82 0 0 1 2.35-1.15c1 0 1.8.28 2.36.86.57.57.86 1.38.86 2.41Zm-1.33.13c0-.76-.17-1.33-.52-1.71-.36-.38-.9-.58-1.64-.58-.52 0-.97.13-1.36.39a2.2 2.2 0 0 0-.78.86l-.03.37v.32c0 .33.04.66.13.98a2.42 2.42 0 0 0 1.14 1.47c.28.15.62.22 1 .22a1.97 1.97 0 0 0 1.9-1.4c.11-.28.16-.59.16-.92Zm14.75 5.28h-.87l-.24-2.03h-6.01l-.24 2.03h-.87v-3.15h.95c.08-.12.2-.33.33-.62.14-.31.28-.74.4-1.28.14-.56.26-1.24.36-2.05.1-.82.17-1.8.19-2.93h4.83v6.88h1.17v3.15Zm-2.45-3.15v-5.76h-2.4a27.43 27.43 0 0 1-.34 3.06c-.08.52-.2 1.01-.33 1.48-.14.47-.3.88-.48 1.22h3.55Zm3.59-2.88c0-1.35.3-2.39.9-3.1a3.21 3.21 0 0 1 2.6-1.1c.6 0 1.11.1 1.55.31.45.2.82.48 1.1.85.3.36.5.8.64 1.33.14.51.21 1.08.21 1.71 0 1.35-.3 2.4-.9 3.12-.6.71-1.47 1.07-2.6 1.07-.6 0-1.12-.1-1.57-.29-.44-.2-.8-.48-1.09-.84-.28-.38-.5-.82-.64-1.33-.14-.52-.2-1.1-.2-1.73Zm1.32 0c0 .4.04.8.12 1.17.08.37.2.7.38.97.17.28.4.5.67.68.28.17.61.25 1 .25 1.46.01 2.19-1.01 2.19-3.07 0-.42-.05-.81-.13-1.18-.08-.38-.2-.7-.37-.98a1.89 1.89 0 0 0-1.68-.91c-1.45-.01-2.18 1.01-2.18 3.07Zm12.46 2.82h2.24v-7.75l.16-.94-.64.75-1.76 1.26-.6-.81 3.51-2.72h.58v10.2h2.2V88h-5.69v-1.18Zm8.08-1.5c0-.66.18-1.25.53-1.74.35-.5.9-.95 1.65-1.36a4.08 4.08 0 0 1-1.36-1.1c-.17-.22-.31-.47-.42-.75-.1-.28-.14-.6-.14-.96 0-.42.07-.8.2-1.14a2.58 2.58 0 0 1 1.6-1.45c.39-.14.82-.21 1.3-.21.45 0 .85.06 1.22.19.36.13.66.3.9.53a2.3 2.3 0 0 1 .8 1.82c0 .61-.13 1.15-.4 1.62-.28.46-.74.91-1.38 1.36.27.16.54.33.78.53a3.39 3.39 0 0 1 1.1 1.44 3.47 3.47 0 0 1-.06 2.26 2.76 2.76 0 0 1-1.71 1.6c-.42.16-.9.23-1.43.23-.5 0-.96-.07-1.35-.22-.4-.15-.74-.35-1.01-.61a2.57 2.57 0 0 1-.61-.9c-.14-.35-.2-.73-.2-1.13Zm5.3-.15c0-.32-.07-.6-.2-.83-.12-.25-.3-.47-.5-.66-.21-.2-.44-.38-.71-.54l-.83-.47a3.7 3.7 0 0 0-1.4 1.22c-.27.45-.41.87-.41 1.28 0 .25.04.5.13.73.08.24.21.44.38.61a2 2 0 0 0 .63.42c.25.1.54.14.88.14a2.06 2.06 0 0 0 1.4-.46c.2-.16.34-.36.45-.6.12-.24.18-.52.18-.84Zm-3.8-5.8c0 .3.06.57.18.8.12.23.27.43.47.61.2.19.43.36.68.52l.8.43c.48-.38.84-.74 1.06-1.1.23-.37.35-.77.35-1.2 0-.55-.17-.97-.51-1.25-.33-.3-.73-.45-1.2-.45a1.93 1.93 0 0 0-1.34.51 1.52 1.52 0 0 0-.49 1.14Zm15.93 1.75h-2.32l-.1 1.46a16.24 16.24 0 0 1-.4 3.04c-.1.47-.24.88-.4 1.24-.17.37-.37.66-.62.88-.23.22-.51.32-.84.32-.2 0-.38 0-.53-.03a1.47 1.47 0 0 1-.4-.11l.19-1.07c.13.04.27.06.41.06.22 0 .41-.09.58-.27.17-.18.32-.52.45-1.02.13-.52.23-1.22.32-2.12.09-.9.14-2.06.18-3.5h4.76v8h-1.28v-6.88Zm9.59 6.24a3.6 3.6 0 0 1-1.22.6c-.48.16-1 .23-1.54.23a4 4 0 0 1-1.58-.29c-.45-.2-.82-.48-1.1-.84-.3-.38-.5-.82-.64-1.33a6.64 6.64 0 0 1-.21-1.73c0-1.37.3-2.4.91-3.12.6-.71 1.48-1.07 2.6-1.07.37 0 .73.04 1.1.13.36.07.68.22.97.44.29.23.53.55.7.96a4 4 0 0 1 .28 1.62c0 .35-.03.74-.1 1.17h-5.13c0 .47.04.88.14 1.25a2.06 2.06 0 0 0 1.23 1.5c.33.13.73.2 1.2.2a3.25 3.25 0 0 0 1.9-.65l.49.93Zm-2.76-6.43c-.63 0-1.13.16-1.52.5-.37.32-.6.89-.67 1.69h3.97c0-.81-.15-1.38-.46-1.7a1.7 1.7 0 0 0-1.32-.5Zm10.14.19h-2.5V88h-1.29v-6.88h-2.5V80h6.3v1.12Zm-.42 6.14a.9.9 0 0 1 .24-.67c.17-.17.4-.25.67-.25.29 0 .52.08.69.25.17.16.25.39.25.67a.9.9 0 0 1-.25.68.93.93 0 0 1-.69.25.91.91 0 0 1-.67-.25.94.94 0 0 1-.24-.68Zm15.47 2.8h-.91l-.24-2.06h-7.86l-.24 2.06h-.93v-3.24h1.14c.09-.12.21-.4.38-.82.19-.44.36-1.06.53-1.86.18-.8.34-1.81.48-3.02.14-1.22.21-2.66.21-4.32h5.98v10.02H226v3.24Zm-2.78-3.24v-8.84h-3.41a42.9 42.9 0 0 1-.51 5.67c-.13.71-.28 1.33-.44 1.85-.16.53-.32.96-.5 1.32h4.86Zm9.92.54c-.31.26-.72.46-1.21.6-.48.16-1 .23-1.54.23a4 4 0 0 1-1.58-.29c-.45-.2-.82-.48-1.1-.84-.3-.38-.5-.82-.64-1.33a6.6 6.6 0 0 1-.21-1.73c0-1.37.3-2.4.9-3.12.62-.71 1.49-1.07 2.62-1.07.36 0 .72.04 1.09.13.36.07.68.22.97.44.29.23.52.55.7.96.19.4.28.95.28 1.62 0 .35-.03.74-.1 1.17h-5.14c0 .47.05.88.15 1.25a2.05 2.05 0 0 0 1.23 1.5c.33.13.73.2 1.2.2a3.26 3.26 0 0 0 1.9-.65l.48.93Zm-2.75-6.43c-.63 0-1.13.16-1.52.5-.37.32-.6.89-.67 1.69h3.97c0-.81-.16-1.38-.47-1.7-.3-.33-.74-.5-1.3-.5Zm10.14.19h-2.5V88h-1.29v-6.88h-2.51V80h6.3v1.12Zm6.27 2.14.05-.99h-.05l-.66 1.03-3.6 4.7h-.74v-8h1.28v4.88l-.04.94h.06l.63-.99 3.6-4.83h.75v8h-1.28v-4.74ZM60.3 111.03h-.86L59.2 109h-6.02l-.24 2.03h-.86v-3.15h.94c.09-.12.2-.32.34-.62.14-.31.27-.74.4-1.28a27.06 27.06 0 0 0 .54-4.98h4.84v6.88h1.16v3.15Zm-2.44-3.15v-5.76h-2.4a28.48 28.48 0 0 1-.34 3.06c-.09.52-.2 1.01-.34 1.48-.13.47-.3.88-.48 1.22h3.56Zm3.58-2.88c0-1.36.3-2.39.9-3.1a3.21 3.21 0 0 1 2.6-1.1c.6 0 1.12.1 1.56.31.44.2.81.48 1.1.85.29.36.5.8.64 1.33.14.51.2 1.08.2 1.71 0 1.36-.3 2.4-.9 3.12-.6.71-1.47 1.07-2.6 1.07-.6 0-1.12-.1-1.56-.29-.44-.2-.8-.48-1.1-.84-.28-.38-.5-.82-.63-1.33-.14-.53-.21-1.1-.21-1.73Zm1.33 0c0 .4.04.8.11 1.17.09.37.21.7.38.97a1.88 1.88 0 0 0 1.68.93c1.45.01 2.18-1.01 2.18-3.07 0-.42-.04-.81-.13-1.18-.07-.38-.2-.7-.37-.98a1.89 1.89 0 0 0-1.68-.91c-1.45-.01-2.17 1.01-2.17 3.07Zm18.6.62c0 .5-.07.96-.22 1.4a3.17 3.17 0 0 1-3.18 2.18c-.54 0-1.02-.1-1.45-.26-.42-.17-.8-.42-1.1-.76-.3-.34-.55-.75-.72-1.24a5.47 5.47 0 0 1-.24-1.7c0-1.06.13-2.03.4-2.91.28-.9.66-1.68 1.14-2.34a6.03 6.03 0 0 1 1.7-1.6 5.37 5.37 0 0 1 2.14-.78l.27 1.02c-.6.1-1.14.31-1.63.61a5.35 5.35 0 0 0-2.2 2.58 6.7 6.7 0 0 0-.48 1.68 2.83 2.83 0 0 1 2.35-1.15c1 0 1.8.28 2.36.86.57.57.86 1.38.86 2.41Zm-1.33.13c0-.75-.17-1.33-.52-1.71-.36-.38-.9-.58-1.64-.58-.52 0-.97.13-1.36.39a2.2 2.2 0 0 0-.78.86 2.7 2.7 0 0 0-.03.37v.32c0 .33.04.66.13.98a2.42 2.42 0 0 0 1.14 1.47c.28.15.62.22 1 .22a1.96 1.96 0 0 0 1.9-1.4c.11-.28.16-.59.16-.92Zm11.98-3.63H89.7l-.1 1.46a16.04 16.04 0 0 1-.4 3.04c-.1.47-.24.88-.41 1.24-.16.37-.36.66-.61.88-.23.22-.52.32-.85.32-.2 0-.38 0-.53-.03a1.46 1.46 0 0 1-.4-.11l.2-1.07c.12.04.26.06.41.06.22 0 .4-.09.58-.27.17-.18.32-.52.45-1.02.12-.52.23-1.22.32-2.12.08-.9.14-2.06.17-3.5h4.77v8h-1.28v-6.88Zm9.58 6.24a3.6 3.6 0 0 1-1.21.6c-.48.16-1 .23-1.54.23a4 4 0 0 1-1.58-.29c-.45-.2-.82-.48-1.1-.84-.3-.38-.5-.82-.65-1.33a6.61 6.61 0 0 1-.2-1.73c0-1.36.3-2.4.9-3.12.62-.71 1.48-1.07 2.62-1.07.36 0 .72.04 1.08.13.37.07.7.22.98.44.29.23.52.55.7.96a4 4 0 0 1 .28 1.62c0 .35-.04.74-.1 1.17h-5.14c0 .47.05.88.15 1.25a2.06 2.06 0 0 0 1.23 1.5c.33.13.73.2 1.2.2a3.25 3.25 0 0 0 1.9-.65l.48.93Zm-2.75-6.43c-.63 0-1.13.16-1.52.5-.37.32-.6.89-.67 1.69h3.97c0-.81-.16-1.38-.47-1.7a1.7 1.7 0 0 0-1.3-.5Zm10.14.19h-2.51V109h-1.28v-6.88h-2.51V101h6.3v1.12Zm5.04-1.12h.88l.24.96h.06c.25-.37.56-.66.95-.85.4-.2.84-.3 1.34-.3 1.07 0 1.86.31 2.39.94.52.63.78 1.66.78 3.09 0 .67-.1 1.28-.27 1.82s-.42 1-.74 1.36c-.32.38-.7.67-1.17.87a4.46 4.46 0 0 1-2.45.22 3.5 3.5 0 0 1-.73-.24v3.33h-1.28V101Zm3.23.93c-.54 0-.98.14-1.3.43-.3.28-.52.7-.65 1.28v3.97c.2.15.41.27.66.35.24.08.57.11.97.11a2.1 2.1 0 0 0 1.75-.81c.43-.56.65-1.37.65-2.44 0-.43-.04-.83-.11-1.18-.08-.36-.2-.67-.37-.91a1.63 1.63 0 0 0-.64-.6 2 2 0 0 0-.96-.2Zm5.3-.34c.4-.24.87-.42 1.4-.54.55-.12 1.11-.18 1.7-.18.56 0 1 .08 1.33.23.34.15.6.34.77.59.18.23.3.5.35.78.06.29.1.58.1.87 0 .64-.02 1.26-.05 1.87-.03.6-.05 1.18-.05 1.73 0 .4.01.76.05 1.12.03.35.09.67.17.97h-.94l-.34-1.12h-.08a2.74 2.74 0 0 1-.88.83 3.59 3.59 0 0 1-1.61.39c-.34 0-.66-.05-.96-.16-.3-.1-.54-.26-.75-.45-.22-.2-.39-.44-.52-.72a2.4 2.4 0 0 1-.17-.94c0-.47.1-.86.28-1.17.2-.32.46-.57.8-.75.36-.2.77-.33 1.25-.4.5-.09 1.03-.13 1.62-.13h.43c.15 0 .3 0 .45.03.03-.32.05-.6.05-.86 0-.6-.12-1-.35-1.24-.24-.23-.67-.35-1.28-.35a5.04 5.04 0 0 0-1.86.34c-.2.06-.36.14-.51.22l-.4-.96Zm2.27 6.42c.3 0 .56-.04.8-.11.23-.09.44-.2.6-.3.18-.14.32-.27.42-.42.12-.15.2-.3.26-.44v-1.32c-.15-.02-.3-.02-.47-.02a6.1 6.1 0 0 0-1.42.05c-.3.03-.59.1-.83.2s-.43.24-.58.42a1 1 0 0 0-.2.66c0 .37.13.68.4.93.26.23.6.35 1.02.35Zm6.56-2.58v-1.04h1.12a1.92 1.92 0 0 0 1.07-.35c.15-.12.27-.25.36-.4.1-.16.14-.33.14-.5 0-.41-.15-.7-.43-.88a2.6 2.6 0 0 0-1.3-.25c-.41 0-.8.06-1.15.19-.34.13-.6.25-.8.37l-.37-1a5.14 5.14 0 0 1 2.67-.69c1.77 0 2.66.66 2.66 1.98 0 .37-.12.74-.37 1.1-.23.35-.58.6-1.02.75v.07c.63.11 1.06.34 1.3.67.26.33.4.77.4 1.31a2.1 2.1 0 0 1-.83 1.7c-.29.2-.64.38-1.06.5-.42.13-.9.18-1.46.18-.54 0-1-.04-1.36-.14-.35-.1-.67-.21-.96-.35l.37-1.06c.24.14.53.25.88.32.35.08.73.11 1.13.11.65 0 1.15-.1 1.5-.33.33-.23.5-.57.5-1.03 0-.38-.16-.68-.48-.9-.32-.22-.84-.33-1.58-.33h-.93Zm12.9-1.18.1-1.52h-.08l-.58 1.23-1.93 3.14h-.45l-2.02-3.14-.53-1.23h-.06l.13 1.5V109h-1.19v-8h1.27l2.24 3.58.46.93h.03l.48-.96 2.1-3.55h1.28v8h-1.25v-4.75Zm9.55 4.11a3.6 3.6 0 0 1-1.22.6c-.48.16-.99.23-1.53.23a4 4 0 0 1-1.59-.29c-.45-.2-.81-.48-1.1-.84-.29-.38-.5-.82-.64-1.33a6.6 6.6 0 0 1-.21-1.73c0-1.36.3-2.4.91-3.12.61-.71 1.48-1.07 2.61-1.07.36 0 .72.04 1.09.13.36.07.69.22.97.44.3.23.53.55.7.96.19.4.28.95.28 1.62 0 .35-.03.74-.1 1.17h-5.13c0 .47.05.88.14 1.25a2.06 2.06 0 0 0 1.23 1.5c.33.13.73.2 1.2.2a3.26 3.26 0 0 0 1.9-.65l.49.93Zm-2.75-6.43c-.63 0-1.14.16-1.52.5-.38.32-.6.89-.68 1.69h3.97c0-.81-.15-1.38-.46-1.7a1.7 1.7 0 0 0-1.31-.5Zm15.5 9.1h-.87l-.24-2.03h-9.36v-8h1.28v6.88h2.74V101h1.28v6.88h2.74V101h1.28v6.88h1.15v3.15Zm1.45-9.44c.4-.24.88-.42 1.41-.54.54-.12 1.1-.18 1.7-.18.55 0 1 .08 1.32.23.34.15.6.34.77.59.18.23.3.5.35.78.07.29.1.58.1.87 0 .64-.02 1.26-.05 1.87-.03.6-.05 1.18-.05 1.73 0 .4.02.76.05 1.12.03.35.1.67.18.97h-.95l-.33-1.12h-.08a2.74 2.74 0 0 1-.88.83 3.61 3.61 0 0 1-1.62.39c-.34 0-.66-.05-.96-.16-.29-.1-.54-.26-.75-.45-.21-.2-.38-.44-.51-.72-.12-.28-.18-.6-.18-.94a2 2 0 0 1 1.09-1.92c.35-.2.77-.33 1.25-.4a9.48 9.48 0 0 1 1.61-.13h.44c.15 0 .3 0 .44.03.04-.32.05-.6.05-.86 0-.6-.12-1-.35-1.24-.24-.23-.66-.35-1.28-.35a5.04 5.04 0 0 0-1.86.34c-.19.06-.36.14-.5.22l-.4-.96Zm2.27 6.42c.3 0 .57-.04.8-.11.24-.09.44-.2.61-.3.17-.14.31-.27.42-.42.12-.15.2-.3.25-.44v-1.32c-.15-.02-.3-.02-.46-.02a6.12 6.12 0 0 0-1.42.05c-.31.03-.6.1-.84.2-.23.1-.42.24-.57.42a1 1 0 0 0-.21.66c0 .37.13.68.4.93.27.23.6.35 1.02.35Zm12 1.18a3.9 3.9 0 0 1-1.48-.25c-.4-.19-.74-.44-1.01-.76a3.63 3.63 0 0 1-.6-1.18c-.12-.47-.2-.98-.23-1.54h-1.6V109h-1.28v-8h1.28v3.34H179c.09-1.14.4-2.01.93-2.62.54-.6 1.35-.91 2.42-.91.58 0 1.08.1 1.49.3.41.2.75.48 1 .85.27.36.46.8.58 1.33.12.51.18 1.08.18 1.71 0 1.36-.28 2.4-.82 3.12-.53.71-1.36 1.07-2.47 1.07Zm-2.06-4.19a7 7 0 0 0 .1 1.18c.06.38.17.7.33 1 .16.27.38.5.64.65.28.16.62.24 1.03.24.68 0 1.17-.24 1.47-.73.3-.5.45-1.28.45-2.34a7 7 0 0 0-.1-1.18c-.05-.38-.15-.7-.3-.98a1.73 1.73 0 0 0-.6-.67 1.7 1.7 0 0 0-.94-.24c-.74 0-1.27.25-1.6.75-.32.5-.48 1.26-.48 2.32Zm12.21-2.88h-2.51V109h-1.28v-6.88h-2.51V101h6.3v1.12Zm6.48 6.35c-.32.24-.7.41-1.14.53a4.87 4.87 0 0 1-2.94-.1c-.43-.2-.78-.48-1.06-.84a3.87 3.87 0 0 1-.59-1.33 7.92 7.92 0 0 1-.18-1.73c0-1.36.3-2.39.9-3.1.6-.73 1.46-1.1 2.58-1.1.5 0 .94.05 1.3.14.35.07.68.18.97.33l-.37 1.1a3.24 3.24 0 0 0-.82-.31 3.5 3.5 0 0 0-.96-.13c-1.51 0-2.27 1.02-2.27 3.07 0 .4.04.8.11 1.17.09.36.22.69.4.97.2.28.44.5.74.68.3.17.69.25 1.14.25a2.9 2.9 0 0 0 1.78-.58l.4.98Zm5.75-2.78-1.24.19-2.1 3.12h-1.56l1.92-2.74.64-.59a2.64 2.64 0 0 1-1.42-.67 1.93 1.93 0 0 1-.58-1.47c0-.48.08-.9.24-1.23.17-.34.4-.63.72-.85.3-.23.68-.39 1.1-.48a7.22 7.22 0 0 1 2.54-.08l1.02.17V109h-1.28v-3.31Zm0-3.6c-.14-.06-.3-.1-.47-.11a2.47 2.47 0 0 0-.45-.05c-.68 0-1.2.12-1.56.37-.36.24-.53.63-.53 1.16 0 .48.18.86.56 1.12.38.26.88.39 1.5.39h.45l.5-.03v-2.85ZM53.97 123.42c.35-.5.74-.86 1.17-1.07.42-.21.96-.32 1.6-.32.98 0 1.73.32 2.25.96.54.64.8 1.59.8 2.83 0 1.44-.3 2.53-.93 3.27-.6.73-1.46 1.1-2.56 1.1-1.17 0-2.05-.4-2.64-1.21-.58-.81-.88-2.09-.88-3.83 0-.92.05-1.7.13-2.35.1-.65.23-1.2.4-1.65.18-.45.4-.8.64-1.07.26-.27.54-.47.85-.62.32-.16.67-.28 1.04-.34s.77-.12 1.2-.16c.55-.05.99-.11 1.3-.18.32-.07.57-.2.76-.38l.15 1.15c-.1.1-.23.18-.35.24-.13.07-.29.12-.47.16a13.26 13.26 0 0 1-1.52.2c-.46.03-.86.08-1.21.17a1.9 1.9 0 0 0-.9.46c-.25.23-.44.55-.6.98-.13.42-.23.97-.28 1.66h.05Zm.14 2.6c0 .4.04.8.13 1.16.09.38.21.7.38 1a1.92 1.92 0 0 0 1.66.9c.74 0 1.29-.27 1.64-.8.36-.53.54-1.3.54-2.34 0-.4-.03-.78-.1-1.12-.08-.34-.2-.64-.36-.88a1.57 1.57 0 0 0-.6-.58c-.25-.14-.55-.2-.89-.2-.83-.02-1.44.23-1.82.73a3.4 3.4 0 0 0-.58 2.13Zm13.54 3.34a3.6 3.6 0 0 1-1.22.6c-.48.16-.99.23-1.53.23a4 4 0 0 1-1.59-.29c-.44-.2-.81-.48-1.1-.84-.29-.38-.5-.82-.64-1.33a6.62 6.62 0 0 1-.2-1.73c0-1.36.3-2.4.9-3.12.61-.71 1.48-1.07 2.61-1.07.36 0 .73.04 1.09.13.36.07.69.22.98.44.28.23.52.55.7.96a4 4 0 0 1 .27 1.62c0 .35-.03.74-.1 1.17H62.7c0 .47.05.88.14 1.25a2.06 2.06 0 0 0 1.23 1.5c.34.13.74.2 1.2.2a3.25 3.25 0 0 0 1.91-.65l.48.93Zm-2.75-6.43c-.63 0-1.14.16-1.52.5-.38.32-.6.89-.67 1.69h3.96c0-.81-.15-1.38-.46-1.7a1.7 1.7 0 0 0-1.31-.5Zm10.32 6.54c-.32.24-.7.41-1.14.53a4.87 4.87 0 0 1-2.94-.1c-.43-.2-.78-.48-1.06-.84a3.87 3.87 0 0 1-.59-1.33 7.9 7.9 0 0 1-.17-1.73c0-1.36.3-2.39.9-3.1.59-.73 1.45-1.1 2.57-1.1.5 0 .94.05 1.3.14.36.07.68.18.97.33l-.37 1.1a3.25 3.25 0 0 0-.81-.31 3.5 3.5 0 0 0-.96-.13c-1.52 0-2.28 1.02-2.28 3.07 0 .4.04.8.12 1.17.08.36.21.69.4.97.19.28.43.5.73.68.31.17.69.25 1.14.25a2.9 2.9 0 0 0 1.78-.58l.4.98Zm6.58-6.35h-3.54V130h-1.28v-8h6.1v8H81.8v-6.88Zm8.05 0h-2.32l-.1 1.46a16 16 0 0 1-.4 3.04c-.1.47-.24.88-.41 1.24-.16.37-.37.66-.61.88-.24.22-.52.32-.85.32-.2 0-.38 0-.53-.03a1.46 1.46 0 0 1-.4-.11l.2-1.07c.12.04.26.06.41.06.21 0 .4-.09.58-.27.17-.18.32-.52.44-1.02a15 15 0 0 0 .32-2.12c.09-.9.15-2.06.18-3.5h4.77v8h-1.28v-6.88Zm3.61-.53c.4-.24.88-.42 1.41-.54.55-.12 1.11-.18 1.7-.18.55 0 1 .08 1.33.23.34.15.6.34.76.59.18.23.3.5.36.78.06.29.1.58.1.87 0 .64-.02 1.26-.06 1.87-.03.6-.04 1.18-.04 1.73 0 .4.01.76.04 1.12.04.35.1.67.18.97h-.94l-.34-1.12h-.08a2.72 2.72 0 0 1-.88.83 3.6 3.6 0 0 1-1.62.39c-.34 0-.66-.06-.96-.16-.28-.1-.54-.26-.75-.45-.21-.2-.38-.44-.51-.72a2.4 2.4 0 0 1-.18-.94c0-.47.1-.86.3-1.17.18-.32.45-.57.8-.75.34-.2.76-.33 1.24-.4.49-.09 1.03-.13 1.62-.13h.43c.15 0 .3 0 .45.03.03-.32.04-.6.04-.86 0-.6-.11-1-.35-1.24-.23-.23-.66-.35-1.28-.35a5.05 5.05 0 0 0-1.86.34c-.19.06-.36.14-.5.22l-.4-.96Zm2.28 6.42c.3 0 .56-.04.8-.11.23-.09.43-.2.6-.3.17-.14.31-.28.42-.42.12-.15.2-.3.26-.44v-1.32c-.15-.02-.3-.02-.47-.02a6.1 6.1 0 0 0-1.42.05c-.31.03-.59.1-.83.2s-.43.24-.58.42a1 1 0 0 0-.2.66c0 .37.12.68.4.93.26.23.6.35 1.02.35Zm10.9-5.89h-2.52V130h-1.28v-6.88h-2.51V122h6.3v1.12Zm6.16 3.34h-3.62V130h-1.28v-8h1.28v3.34h3.62V122h1.28v8h-1.28v-3.54Zm3.3-.46c0-1.36.3-2.39.9-3.1a3.21 3.21 0 0 1 2.6-1.1c.6 0 1.12.1 1.55.31.45.2.82.48 1.1.85.3.36.5.8.65 1.33.13.51.2 1.08.2 1.71 0 1.36-.3 2.4-.9 3.12-.6.72-1.47 1.07-2.6 1.07-.6 0-1.12-.1-1.57-.29-.44-.2-.8-.48-1.09-.84-.28-.38-.5-.82-.63-1.33-.14-.53-.21-1.1-.21-1.73Zm1.32 0c0 .4.04.8.12 1.17.08.37.21.7.38.97.17.28.4.5.67.68.28.17.62.25 1.01.25 1.45.01 2.18-1.01 2.18-3.07 0-.42-.05-.81-.13-1.18-.08-.38-.2-.7-.37-.98a1.9 1.9 0 0 0-1.68-.91c-1.45-.01-2.18 1.01-2.18 3.07Zm7.07 3.26a.9.9 0 0 1 .24-.67.9.9 0 0 1 .67-.25c.29 0 .52.08.69.25.17.16.25.39.25.67a.9.9 0 0 1-.25.68.93.93 0 0 1-.7.25.9.9 0 0 1-.66-.25.94.94 0 0 1-.24-.68Z" fill="#fff"/><path d="m157.5 6 9.5 9h-19l9.5-9Z" fill="#333"/><defs><filter id="a" x="0" y="0" width="316" height="203" filterUnits="userSpaceOnUse" color-interpolation-filters="sRGB"><feFlood flood-opacity="0" result="BackgroundImageFix"/><feColorMatrix in="SourceAlpha" values="0 0 0 0 0 0 0 0 0 0 0 0 0 0 0 0 0 0 127 0" result="hardAlpha"/><feOffset dy="15"/><feGaussianBlur stdDeviation="15"/><feColorMatrix values="0 0 0 0 0 0 0 0 0 0 0 0 0 0 0 0 0 0 0.3 0"/><feBlend in2="BackgroundImageFix" result="effect1_dropShadow_33716_645"/><feBlend in="SourceGraphic" in2="effect1_dropShadow_33716_645" result="shape"/></filter></defs></svg>